<svg width="48" height="48" viewBox="0 0 48 48" fill="none" xmlns="http://www.w3.org/2000/svg">
<path d="M42.9679 14.25L24.9239 4.24999C24.6274 4.08664 24.2944 4.00098 23.9559 4.00098C23.6174 4.00098 23.2844 4.08664 22.9879 4.24999L5.03189 14.17C4.71995 14.3427 4.45987 14.5957 4.27857 14.9027C4.09727 15.2097 4.00135 15.5597 4.00074 15.9162C4.00012 16.2728 4.09484 16.623 4.27509 16.9307C4.45533 17.2383 4.71455 17.4922 5.02589 17.666L23.0699 27.746C23.3669 27.9129 23.7019 28.0007 24.0426 28.0011C24.3834 28.0014 24.7185 27.9143 25.0159 27.748L42.9719 17.748C43.2838 17.5745 43.5436 17.3207 43.7244 17.013C43.9051 16.7052 44.0002 16.3547 43.9998 15.9978C43.9994 15.6409 43.9035 15.2906 43.7221 14.9833C43.5406 14.6759 43.2802 14.4227 42.9679 14.25Z" fill="url(#paint0_linear_45_43)"/>
<path d="M24.0001 31.712L6.97008 22.252L5.02808 25.748L23.0281 35.748C23.3251 35.9129 23.6593 35.9995 23.9991 35.9995C24.3389 35.9995 24.673 35.9129 24.9701 35.748L42.9701 25.748L41.0281 22.252L24.0001 31.712Z" fill="url(#paint1_linear_45_43)"/>
<path d="M24.0001 39.712L6.97008 30.252L5.02808 33.748L23.0281 43.748C23.3251 43.9129 23.6593 43.9995 23.9991 43.9995C24.3389 43.9995 24.673 43.9129 24.9701 43.748L42.9701 33.748L41.0281 30.252L24.0001 39.712Z" fill="url(#paint2_linear_45_43)"/>
<defs>
<linearGradient id="paint0_linear_45_43" x1="43.9998" y1="16.8055" x2="4.00108" y2="16.6034" gradientUnits="userSpaceOnUse">
<stop stop-color="#D9207C"/>
<stop offset="1" stop-color="#662D91"/>
</linearGradient>
<linearGradient id="paint1_linear_45_43" x1="42.9701" y1="29.5865" x2="5.03009" y2="29.2691" gradientUnits="userSpaceOnUse">
<stop stop-color="#D9207C"/>
<stop offset="1" stop-color="#662D91"/>
</linearGradient>
<linearGradient id="paint2_linear_45_43" x1="42.9701" y1="37.5865" x2="5.03009" y2="37.2691" gradientUnits="userSpaceOnUse">
<stop stop-color="#D9207C"/>
<stop offset="1" stop-color="#662D91"/>
</linearGradient>
</defs>
</svg>
